<svg width="113" height="31" viewBox="0 0 113 31" fill="none" xmlns="http://www.w3.org/2000/svg">
<g id="Vector">
<path d="M4.24702e-05 27.9767C-0.0066455 26.6318 0.776556 25.669 2.34965 25.0885L2.34274 23.6994C1.13026 23.3081 0.521444 22.5944 0.516291 21.5581C0.509384 20.1691 1.40656 19.1617 3.20783 18.5359L3.20109 17.18C1.89451 16.2379 1.23744 15.0062 1.22987 13.4849C1.22165 11.8313 1.8771 10.4391 3.19621 9.30852C4.51521 8.15586 6.1454 7.57504 8.08678 7.56604C9.5942 7.55906 10.8747 7.85078 11.9283 8.44122C12.9819 9.03166 13.7168 9.84407 14.1331 10.8784L15.5035 10.8721C15.6126 9.85733 15.8717 9.12851 16.2806 8.68564C16.6895 8.24277 17.3165 8.01937 18.1616 8.01546L19.1551 8.01085L19.1707 11.1528L17.492 11.1605C16.8525 11.1635 16.4078 11.2978 16.1579 11.5636C15.9307 11.8072 15.7849 12.3591 15.7207 13.2193L15.6546 13.7157C15.5038 15.5244 14.78 16.9609 13.4834 18.0253C12.1868 19.0897 10.545 19.6264 8.55792 19.6357C7.09618 19.6424 5.96463 19.4492 5.16326 19.0561C4.22837 19.3691 3.7624 19.8232 3.76536 20.4186C3.76821 20.9918 4.31779 21.2759 5.4141 21.2708L12.7799 21.2367C14.4701 21.2289 15.8542 21.6855 16.9322 22.6065C18.0102 23.5055 18.5526 24.6496 18.5595 26.0386C18.5671 27.56 18.0363 28.7531 16.9671 29.6179C15.898 30.5048 14.5184 30.9522 12.8283 30.96L4.2291 30.9999C2.81304 31.0065 1.74951 30.7137 1.03852 30.1217C0.350478 29.5516 0.00431839 28.8366 4.24702e-05 27.9767ZM10.9037 15.9867C11.5175 15.3885 11.822 14.6154 11.8172 13.6673C11.8125 12.7193 11.5004 11.949 10.8807 11.3565C10.2838 10.7419 9.49431 10.4369 8.5122 10.4415C7.5301 10.446 6.73224 10.7584 6.11864 11.3786C5.52776 11.9767 5.23468 12.7497 5.2394 13.6978C5.24411 14.6459 5.54487 15.4162 6.14166 16.0088C6.73834 16.5793 7.53916 16.8622 8.54411 16.8575C9.52622 16.853 10.3128 16.5627 10.9037 15.9867ZM5.44715 27.9184L12.0935 27.8876C13.6466 27.8804 14.4203 27.3036 14.4146 26.157C14.4091 25.0546 13.6298 24.507 12.0767 24.5142L4.40259 24.5498C3.69642 24.9279 3.34531 25.5138 3.34926 26.3075C3.35463 27.3879 4.05393 27.9249 5.44715 27.9184Z" fill="white"/>
<path d="M18.664 16.2484C18.6511 13.6687 19.4173 11.5705 20.9624 9.95381C22.5302 8.31492 24.5018 7.48997 26.8771 7.47897C29.2981 7.46775 31.2434 8.25249 32.7131 9.83321C34.1826 11.3919 34.9236 13.4169 34.9359 15.9084C34.9377 16.2612 34.9169 16.6802 34.8737 17.1655L22.8143 17.2214C22.8904 18.7424 23.3072 19.887 24.0647 20.6552C24.8222 21.4014 25.8176 21.7716 27.0509 21.7659C28.9238 21.7572 30.3121 20.7586 31.2158 18.77L34.9911 20.1085C33.6823 23.3116 31.0294 24.9225 27.0325 24.941C24.4972 24.9528 22.4721 24.1904 20.957 22.654C19.4418 21.0956 18.6774 18.9604 18.664 16.2484ZM22.9365 14.2442L30.7135 14.2082C30.6391 13.0399 30.2577 12.1267 29.5692 11.4684C28.9036 10.81 28.0112 10.4834 26.8921 10.4886C25.8414 10.4934 24.9523 10.8283 24.2247 11.4931C23.52 12.1579 23.0906 13.0749 22.9365 14.2442Z" fill="white"/>
<path d="M37.8325 20.1945L37.7871 11.0665L34.087 11.0836L34.0714 7.94173L37.7714 7.92458L37.7458 2.76525L41.9255 2.74588L41.9511 7.90521L46.4734 7.88426L46.489 11.0262L41.9667 11.0471L42.009 19.5468C42.014 20.561 42.5419 21.0657 43.5925 21.0608L47.224 21.044L47.2405 24.3513L42.1701 24.3748C40.7997 24.3811 39.7358 24.0222 38.9785 23.2981C38.221 22.552 37.839 21.5174 37.8325 20.1945Z" fill="white"/>
<path d="M52.6207 24.3383V0.101562L55.0238 0.101563V24.3383H52.6207Z" fill="white"/>
<path d="M57.8615 15.8208C57.8615 13.1663 58.6505 10.9965 60.2286 9.31151C61.8068 7.62648 63.7436 6.78397 66.039 6.78397C68.3345 6.78397 70.2713 7.62648 71.8494 9.31151C73.4275 10.9965 74.2166 13.1663 74.2166 15.8208C74.2166 18.4522 73.4156 20.6104 71.8135 22.2955C70.2354 23.9574 68.3106 24.7884 66.039 24.7884C63.7675 24.7884 61.8307 23.9574 60.2286 22.2955C58.6505 20.6104 57.8615 18.4522 57.8615 15.8208ZM71.7418 15.8554C71.7418 13.6626 71.2038 11.9545 70.1278 10.7311C69.0757 9.48463 67.7128 8.8614 66.039 8.8614C64.3652 8.8614 62.9904 9.48463 61.9144 10.7311C60.8623 11.9545 60.3362 13.6626 60.3362 15.8554C60.3362 18.0252 60.8623 19.7217 61.9144 20.9451C62.9904 22.1454 64.3652 22.7456 66.039 22.7456C67.7128 22.7456 69.0757 22.1454 70.1278 20.9451C71.2038 19.7217 71.7418 18.0252 71.7418 15.8554Z" fill="white"/>
<path d="M75.675 15.7515C75.675 13.1663 76.4282 11.0312 77.9346 9.34613C79.4649 7.63802 81.4137 6.78397 83.7809 6.78397C85.5981 6.78397 87.1284 7.25716 88.3718 8.20355C89.6391 9.12685 90.4879 10.281 90.9183 11.6659L88.6587 12.3584C87.8697 10.0271 86.2437 8.8614 83.7809 8.8614C82.1788 8.8614 80.8398 9.47309 79.7638 10.6965C78.7117 11.8968 78.1857 13.5818 78.1857 15.7515C78.1857 17.9906 78.6998 19.7217 79.728 20.9451C80.78 22.1454 82.143 22.7456 83.8167 22.7456C85.1797 22.7456 86.2915 22.3647 87.1523 21.603C88.037 20.8413 88.6468 19.8487 88.9815 18.6253L91.277 19.3871C90.7031 21.0721 89.7706 22.3993 88.4794 23.3688C87.2121 24.3152 85.6579 24.7884 83.8167 24.7884C81.3539 24.7884 79.3812 23.9805 77.8988 22.3647C76.4163 20.7258 75.675 18.5215 75.675 15.7515Z" fill="white"/>
<path d="M92.4062 20.0449C92.4062 17.9213 93.4702 16.3055 95.5983 15.1976C97.7025 14.0896 100.44 13.4317 103.812 13.224V12.4969C103.812 11.3428 103.441 10.4541 102.7 9.83087C101.983 9.18456 100.919 8.8614 99.5078 8.8614C96.8536 8.8614 95.1321 9.94628 94.343 12.116L92.0475 11.2851C92.454 10.0155 93.279 8.95373 94.5223 8.09967C95.7896 7.22254 97.4514 6.78397 99.5078 6.78397C101.731 6.78397 103.393 7.30333 104.493 8.34204C105.617 9.35767 106.179 10.7657 106.179 12.5662V20.9105C106.179 21.3952 106.287 21.7415 106.502 21.9492C106.717 22.157 107.064 22.2608 107.542 22.2608H109.263V24.3383H107.901C106.705 24.3383 105.88 24.0844 105.426 23.5765C104.971 23.0456 104.756 22.0993 104.78 20.7374H103.668C103.238 22.0069 102.533 22.9995 101.552 23.715C100.596 24.4306 99.3882 24.7884 97.9296 24.7884C96.232 24.7884 94.881 24.3729 93.8767 23.5419C92.8964 22.6879 92.4062 21.5222 92.4062 20.0449ZM103.812 16.998V14.9898C101.014 15.2206 98.8263 15.7515 97.2482 16.5825C95.67 17.3904 94.881 18.4984 94.881 19.9064C94.881 20.8066 95.1918 21.5222 95.8135 22.0531C96.4352 22.5609 97.3199 22.8148 98.4676 22.8148C99.9262 22.8148 101.182 22.3185 102.234 21.326C103.286 20.3104 103.812 18.8677 103.812 16.998Z" fill="white"/>
<path d="M110.597 24.3383V0.101563L113 0.101563V24.3383H110.597Z" fill="white"/>
</g>
</svg>
